<svg width="147" height="62" viewBox="0 0 147 62" fill="none" xmlns="http://www.w3.org/2000/svg">
<path d="M6.82129 37.6543C10.5616 37.6543 13.5938 34.6426 13.5938 30.9275C13.5938 27.2124 10.5616 24.2007 6.82129 24.2007C3.08096 24.2007 0.0488281 27.2124 0.0488281 30.9275C0.0488281 34.6426 3.08096 37.6543 6.82129 37.6543Z" fill="#AFB709"/>
<path d="M11.1674 20.8817C14.158 20.8817 16.5824 18.4737 16.5824 15.5032C16.5824 12.5328 14.158 10.1248 11.1674 10.1248C8.17681 10.1248 5.75244 12.5328 5.75244 15.5032C5.75244 18.4737 8.17681 20.8817 11.1674 20.8817Z" fill="#7BA11E"/>
<path d="M11.1674 51.7252C14.158 51.7252 16.5824 49.3172 16.5824 46.3467C16.5824 43.3763 14.158 40.9683 11.1674 40.9683C8.17681 40.9683 5.75244 43.3763 5.75244 46.3467C5.75244 49.3172 8.17681 51.7252 11.1674 51.7252Z" fill="#E4CF33"/>
<path d="M21.8677 10.263C24.1113 10.263 25.9301 8.45647 25.9301 6.22796C25.9301 3.99944 24.1113 2.19287 21.8677 2.19287C19.624 2.19287 17.8052 3.99944 17.8052 6.22796C17.8052 8.45647 19.624 10.263 21.8677 10.263Z" fill="#67A522"/>
<path d="M51.1758 11.6312C53.4194 11.6312 55.2383 9.82464 55.2383 7.59612C55.2383 5.3676 53.4194 3.56104 51.1758 3.56104C48.9321 3.56104 47.1133 5.3676 47.1133 7.59612C47.1133 9.82464 48.9321 11.6312 51.1758 11.6312Z" fill="#3DAE2B"/>
<path d="M51.1758 54.8219C53.4194 54.8219 55.2383 53.0153 55.2383 50.7868C55.2383 48.5583 53.4194 46.7517 51.1758 46.7517C48.9321 46.7517 47.1133 48.5583 47.1133 50.7868C47.1133 53.0153 48.9321 54.8219 51.1758 54.8219Z" fill="#D95204"/>
<path d="M21.8677 59.6571C24.1113 59.6571 25.9301 57.8505 25.9301 55.622C25.9301 53.3935 24.1113 51.5869 21.8677 51.5869C19.624 51.5869 17.8052 53.3935 17.8052 55.622C17.8052 57.8505 19.624 59.6571 21.8677 59.6571Z" fill="#EFB807"/>
<path d="M36.4522 5.38341C37.9488 5.38341 39.1621 4.17829 39.1621 2.6917C39.1621 1.20512 37.9488 0 36.4522 0C34.9555 0 33.7422 1.20512 33.7422 2.6917C33.7422 4.17829 34.9555 5.38341 36.4522 5.38341Z" fill="#51AA27"/>
<path d="M36.4522 61.8549C37.9488 61.8549 39.1621 60.6497 39.1621 59.1631C39.1621 57.6766 37.9488 56.4714 36.4522 56.4714C34.9555 56.4714 33.7422 57.6766 33.7422 59.1631C33.7422 60.6497 34.9555 61.8549 36.4522 61.8549Z" fill="#F28705"/>
<path d="M73.3926 26.922V33.0117H72.5622V26.922H70.3843V26.2009H75.5705V26.922H73.3926Z" fill="#999999"/>
<path d="M76.1719 33.0115V27.9788H76.9575V28.9073H77.0072C77.1178 28.6168 77.3198 28.3696 77.5832 28.2023C77.8466 28.035 78.1573 27.9566 78.4691 27.9788H78.7725V28.7591H78.31C77.4697 28.7591 76.9575 29.1197 76.9575 29.5987V33.0115H76.1719Z" fill="#999999"/>
<path d="M83.4169 33.0117C83.3045 33.0199 83.1916 33.0048 83.0853 32.9675C82.9791 32.9302 82.8817 32.8713 82.7995 32.7948C82.7173 32.7182 82.6519 32.6255 82.6075 32.5226C82.5632 32.4197 82.5408 32.3087 82.5418 32.1967H82.4921C82.3851 32.49 82.1841 32.7402 81.92 32.9089C81.6558 33.0776 81.3432 33.1553 81.0302 33.1302C79.9561 33.1302 79.3296 32.5425 79.3296 31.609C79.3296 30.6756 80.0158 30.1273 81.4876 30.1273H82.4821V29.6335C82.4821 28.9222 82.0893 28.5271 81.2838 28.5271C81.0194 28.5207 80.7585 28.5881 80.5308 28.7217C80.3031 28.8553 80.1178 29.0497 79.9959 29.2828L79.4987 28.8432C79.6744 28.5267 79.9366 28.266 80.2551 28.0913C80.5736 27.9165 80.9354 27.8347 81.2987 27.8554C82.5169 27.8554 83.2429 28.4926 83.2429 29.5544V32.3252H83.8247V33.0067L83.4169 33.0117ZM82.4921 31.53V30.72H81.4528C80.5578 30.72 80.155 30.9917 80.155 31.4806V31.688C80.155 32.1819 80.5478 32.4684 81.1495 32.4684C81.9302 32.4684 82.4921 32.0683 82.4921 31.5497V31.53Z" fill="#999999"/>
<path d="M88.2103 32.1968H88.1705C88.0496 32.4865 87.8412 32.7319 87.574 32.899C87.3069 33.0662 86.9941 33.147 86.6788 33.1302C85.4108 33.1302 84.6152 32.1079 84.6152 30.4978C84.6152 28.8877 85.4108 27.8604 86.6788 27.8604C86.9956 27.8387 87.3112 27.9181 87.5795 28.0868C87.8478 28.2556 88.0548 28.505 88.1705 28.7988H88.2103V25.791H88.996V33.0117H88.2103V32.1968ZM88.2103 31.4016V29.5298C88.2103 28.9717 87.6186 28.542 86.9026 28.542C86.705 28.534 86.5081 28.5681 86.3249 28.6422C86.1418 28.7162 85.9768 28.8284 85.8411 28.9712C85.7054 29.114 85.6021 29.284 85.5381 29.4698C85.4742 29.6557 85.4511 29.8529 85.4705 30.0484V30.9077C85.4549 31.1012 85.4807 31.2957 85.5464 31.4785C85.612 31.6614 85.7159 31.8283 85.8512 31.9683C85.9865 32.1083 86.1502 32.2182 86.3314 32.2908C86.5126 32.3634 86.7073 32.397 86.9026 32.3894C87.6186 32.4289 88.2103 32.0585 88.2103 31.4016Z" fill="#999999"/>
<path d="M90.2837 30.4977C90.2837 28.8926 91.1837 27.8604 92.5611 27.8604C93.9384 27.8604 94.7539 28.8926 94.7539 30.3298V30.7002H91.1041V30.9373C91.0907 31.1371 91.1198 31.3375 91.1895 31.5255C91.2592 31.7134 91.3679 31.8847 91.5086 32.0282C91.6493 32.1717 91.8188 32.2841 92.0061 32.3583C92.1935 32.4324 92.3944 32.4665 92.5959 32.4585C92.8959 32.4722 93.1932 32.3956 93.4487 32.2387C93.7042 32.0819 93.9061 31.8521 94.0279 31.5793L94.5848 31.9794C94.3993 32.3404 94.1132 32.6409 93.7605 32.8449C93.4079 33.0489 93.0036 33.148 92.5959 33.1302C91.1837 33.1302 90.2837 32.1029 90.2837 30.4977ZM91.1041 30.0384V30.1273H93.9086V30.0236C93.9281 29.8363 93.9078 29.6471 93.8489 29.4681C93.7901 29.2892 93.694 29.1245 93.5669 28.9848C93.4399 28.8451 93.2847 28.7335 93.1114 28.6572C92.9381 28.5809 92.7506 28.5416 92.5611 28.5419C92.3651 28.5404 92.1708 28.5785 91.9901 28.6538C91.8094 28.7291 91.6459 28.8401 91.5097 28.98C91.3735 29.12 91.2673 29.2859 91.1975 29.4679C91.1278 29.6498 91.0961 29.8439 91.1041 30.0384Z" fill="#999999"/>
<path d="M95.9771 30.4682V29.6335H98.5428V30.4732L95.9771 30.4682Z" fill="#999999"/>
<path d="M100.049 27.979H100.835V28.7988H100.875C100.99 28.5051 101.198 28.2556 101.466 28.0869C101.734 27.9181 102.05 27.8388 102.366 27.8604C103.629 27.8604 104.425 28.8877 104.425 30.4978C104.425 32.1079 103.629 33.1303 102.366 33.1303C102.051 33.147 101.738 33.0662 101.471 32.8991C101.204 32.7319 100.996 32.4865 100.875 32.1968H100.835V34.9675H100.049V27.979ZM103.58 30.9423V30.0681C103.598 29.8724 103.575 29.6751 103.51 29.4893C103.446 29.3035 103.342 29.1335 103.206 28.9908C103.07 28.8482 102.904 28.736 102.721 28.662C102.538 28.588 102.34 28.5538 102.143 28.5618C101.427 28.5618 100.835 28.9717 100.835 29.5495V31.4214C100.835 32.0783 101.427 32.4487 102.143 32.4487C102.342 32.4569 102.54 32.4223 102.725 32.3475C102.909 32.2726 103.075 32.1591 103.212 32.0148C103.348 31.8704 103.452 31.6986 103.515 31.511C103.579 31.3234 103.601 31.1243 103.58 30.9275V30.9423Z" fill="#999999"/>
<path d="M105.738 33.0115V27.9788H106.524V28.9073H106.574C106.687 28.6126 106.894 28.3626 107.163 28.195C107.432 28.0275 107.749 27.9516 108.065 27.9788H108.369V28.7591H107.906C107.061 28.7591 106.549 29.1197 106.549 29.5988V33.0115H105.738Z" fill="#999999"/>
<path d="M108.916 30.4977C108.916 28.8926 109.85 27.8604 111.203 27.8604C112.555 27.8604 113.495 28.8926 113.495 30.4977C113.495 32.1029 112.56 33.1302 111.203 33.1302C109.845 33.1302 108.916 32.1029 108.916 30.4977ZM112.65 30.8583V30.1273C112.65 29.0605 112.053 28.5419 111.203 28.5419C110.353 28.5419 109.761 29.0358 109.761 30.1273V30.8484C109.761 31.9102 110.363 32.4288 111.203 32.4288C112.043 32.4288 112.65 31.9201 112.65 30.8583Z" fill="#999999"/>
<path d="M118.025 32.1968H117.985C117.864 32.4861 117.655 32.731 117.388 32.8981C117.121 33.0652 116.809 33.1463 116.494 33.1302C115.226 33.1302 114.43 32.1079 114.43 30.4978C114.43 28.8877 115.226 27.8604 116.494 27.8604C116.811 27.8387 117.126 27.9181 117.394 28.0868C117.663 28.2556 117.87 28.505 117.985 28.7988H118.025V25.791H118.811V33.0117H118.025V32.1968ZM118.025 31.4016V29.5298C118.025 28.9717 117.434 28.542 116.717 28.542C116.52 28.5341 116.323 28.5683 116.139 28.6423C115.956 28.7163 115.791 28.8284 115.655 28.971C115.518 29.1137 115.415 29.2837 115.35 29.4695C115.286 29.6553 115.262 29.8527 115.28 30.0484V30.9077C115.266 31.1014 115.292 31.2961 115.358 31.4789C115.425 31.6617 115.529 31.8285 115.665 31.9685C115.8 32.1084 115.964 32.2182 116.146 32.2908C116.327 32.3633 116.522 32.3969 116.717 32.3894C117.434 32.4289 118.025 32.0585 118.025 31.4016Z" fill="#999999"/>
<path d="M123.594 32.1968H123.554C123.452 32.4859 123.257 32.7337 122.999 32.9023C122.741 33.0708 122.435 33.1509 122.127 33.1303C121.088 33.1303 120.417 32.429 120.417 31.209V27.979H121.207V31.0708C121.207 31.9696 121.61 32.429 122.366 32.429C122.982 32.429 123.594 32.1277 123.594 31.4412V27.979H124.36V33.0117H123.574L123.594 32.1968Z" fill="#999999"/>
<path d="M125.667 30.4978C125.667 28.8877 126.503 27.8604 127.925 27.8604C128.328 27.8299 128.73 27.928 129.072 28.1403C129.415 28.3527 129.68 28.6682 129.829 29.0408L129.173 29.3718C129.086 29.1189 128.918 28.9015 128.694 28.7533C128.47 28.6051 128.203 28.5343 127.935 28.5519C127.737 28.5425 127.539 28.5762 127.355 28.6507C127.172 28.7251 127.007 28.8385 126.872 28.9829C126.737 29.1273 126.635 29.2992 126.574 29.4867C126.513 29.6741 126.494 29.8726 126.518 30.0681V30.9275C126.494 31.1227 126.514 31.3206 126.576 31.5074C126.637 31.6942 126.739 31.8655 126.874 32.0094C127.009 32.1532 127.173 32.2661 127.357 32.3403C127.54 32.4145 127.737 32.4481 127.935 32.4388C128.227 32.449 128.516 32.3702 128.762 32.2131C129.008 32.056 129.2 31.8281 129.312 31.5597L129.884 31.94C129.722 32.3136 129.448 32.6284 129.099 32.8414C128.75 33.0544 128.344 33.1553 127.935 33.1303C126.503 33.1303 125.667 32.103 125.667 30.4978Z" fill="#999999"/>
<path d="M132.092 33.0117C131.98 33.0207 131.868 33.0054 131.762 32.9668C131.657 32.9283 131.561 32.8675 131.481 32.7886C131.402 32.7097 131.341 32.6145 131.302 32.5098C131.263 32.4051 131.248 32.2932 131.257 32.182V28.6458H130.421V27.979H130.894C131.227 27.979 131.336 27.8605 131.336 27.5197V26.5813H132.042V27.979H133.156V28.6458H132.042V32.3154H133.077V32.9969L132.092 33.0117Z" fill="#999999"/>
<path d="M134.305 26.359V26.2306C134.305 25.9688 134.454 25.791 134.802 25.791C135.15 25.791 135.299 25.9688 135.299 26.2306V26.359C135.299 26.6208 135.155 26.7986 134.802 26.7986C134.449 26.7986 134.305 26.6208 134.305 26.359ZM134.394 27.9789H135.18V33.0117H134.394V27.9789Z" fill="#999999"/>
<path d="M136.493 30.4977C136.493 28.8926 137.427 27.8604 138.78 27.8604C140.133 27.8604 141.072 28.8926 141.072 30.4977C141.072 32.1029 140.137 33.1302 138.78 33.1302C137.423 33.1302 136.493 32.1029 136.493 30.4977ZM140.227 30.8583V30.1273C140.227 29.0605 139.63 28.5419 138.78 28.5419C137.93 28.5419 137.338 29.0358 137.338 30.1273V30.8484C137.338 31.9102 137.94 32.4288 138.78 32.4288C139.62 32.4288 140.227 31.9201 140.227 30.8583Z" fill="#999999"/>
<path d="M142.36 33.0115V27.9788H143.145V28.7987H143.18C143.287 28.5097 143.484 28.2624 143.743 28.0934C144.001 27.9244 144.308 27.8426 144.617 27.8603C145.657 27.8603 146.318 28.5616 146.318 29.7815V33.0115H145.532V29.9198C145.532 29.0209 145.139 28.5616 144.384 28.5616C143.752 28.5616 143.145 28.8727 143.145 29.5197V33.0115H142.36Z" fill="#999999"/>
<path d="M70.6279 42.1831C70.6279 40.5779 71.4633 39.5507 72.8904 39.5507C73.2913 39.5231 73.6907 39.6225 74.0311 39.8346C74.3715 40.0467 74.6354 40.3605 74.7849 40.7311L74.1285 41.062C74.0416 40.8091 73.8732 40.5917 73.6494 40.4435C73.4256 40.2953 73.1588 40.2245 72.8904 40.2421C72.6927 40.2328 72.4954 40.2665 72.3121 40.3406C72.1289 40.4148 71.9641 40.5277 71.8292 40.6715C71.6943 40.8154 71.5926 40.9867 71.5311 41.1735C71.4697 41.3603 71.4499 41.5582 71.4732 41.7534V42.6177C71.4499 42.8129 71.4697 43.0108 71.5311 43.1976C71.5926 43.3845 71.6943 43.5557 71.8292 43.6996C71.9641 43.8434 72.1289 43.9563 72.3121 44.0305C72.4954 44.1047 72.6927 44.1383 72.8904 44.129C73.1822 44.1396 73.4703 44.0609 73.7157 43.9037C73.9611 43.7465 74.1521 43.5183 74.2628 43.2499L74.8346 43.6302C74.6729 44.0029 74.3995 44.3172 74.0516 44.5301C73.7038 44.7431 73.2983 44.8445 72.8904 44.8205C71.4633 44.8205 70.6279 43.7932 70.6279 42.1831Z" fill="#999999"/>
<path d="M75.5059 42.1832C75.5059 40.583 76.4357 39.5508 77.7932 39.5508C79.1507 39.5508 80.0805 40.583 80.0805 42.1832C80.0805 43.7834 79.1507 44.8206 77.7932 44.8206C76.4357 44.8206 75.5059 43.7884 75.5059 42.1832ZM79.2352 42.5438V41.8227C79.2352 40.7608 78.6385 40.2422 77.7932 40.2422C76.9479 40.2422 76.3462 40.7361 76.3462 41.8227V42.5438C76.3462 43.6106 76.9479 44.1291 77.7932 44.1291C78.6385 44.1291 79.2352 43.6106 79.2352 42.5438Z" fill="#999999"/>
<path d="M81.3682 44.7021V39.6694H82.1538V40.4991H82.1936C82.2854 40.2148 82.4692 39.9686 82.7166 39.7988C82.9639 39.6291 83.2608 39.5454 83.561 39.5607C83.8964 39.5434 84.2286 39.634 84.508 39.8191C84.7875 40.0042 84.9995 40.2738 85.1124 40.588C85.2147 40.269 85.4227 39.9938 85.7027 39.8072C85.9826 39.6207 86.3179 39.5338 86.6539 39.5607C87.6832 39.5607 88.3047 40.262 88.3047 41.4819V44.712H87.5638V41.6104C87.5638 40.7214 87.2207 40.2522 86.455 40.2522C85.8334 40.2522 85.2666 40.5633 85.2666 41.2103V44.7021H84.4759V41.6104C84.4759 40.7115 84.1328 40.2522 83.387 40.2522C82.7654 40.2522 82.1787 40.5633 82.1787 41.2103V44.7021H81.3682Z" fill="#999999"/>
<path d="M89.9307 39.6693H90.7163V40.499H90.7561C90.8718 40.2053 91.0789 39.9558 91.3472 39.7871C91.6155 39.6183 91.931 39.539 92.2478 39.5606C93.5158 39.5606 94.3114 40.5879 94.3114 42.1931C94.3114 43.7982 93.5158 44.8304 92.2478 44.8304C91.9318 44.8476 91.6183 44.7664 91.3509 44.5982C91.0835 44.43 90.8756 44.1831 90.7561 43.8921H90.7163V46.6677H89.9307V39.6693ZM93.4561 42.6326V41.7535C93.4718 41.56 93.4459 41.3655 93.3803 41.1827C93.3146 40.9999 93.2107 40.833 93.0754 40.6929C92.9401 40.5529 92.7764 40.443 92.5952 40.3704C92.414 40.2978 92.2193 40.2642 92.0241 40.2718C91.3031 40.2718 90.7163 40.6818 90.7163 41.2596V43.1315C90.7163 43.7883 91.3031 44.1588 92.0241 44.1588C92.2249 44.1675 92.4252 44.1326 92.611 44.0565C92.7969 43.9804 92.9638 43.865 93.1001 43.7183C93.2364 43.5716 93.3389 43.3972 93.4004 43.2071C93.4619 43.017 93.4809 42.8159 93.4561 42.6178V42.6326Z" fill="#999999"/>
<path d="M99.3037 44.7021C99.191 44.7095 99.078 44.6938 98.9717 44.6559C98.8654 44.618 98.7681 44.5587 98.686 44.4818C98.6038 44.4048 98.5386 44.3118 98.4943 44.2087C98.45 44.1055 98.4276 43.9944 98.4285 43.8822H98.3788C98.2727 44.1764 98.0721 44.4277 97.8078 44.5973C97.5436 44.7669 97.2305 44.8454 96.9169 44.8206C95.8428 44.8206 95.2163 44.2329 95.2163 43.2994C95.2163 42.3659 95.9025 41.8177 97.3793 41.8177H98.3738V41.3238C98.3738 40.6077 97.981 40.2175 97.1755 40.2175C96.91 40.2144 96.6489 40.2855 96.4221 40.4226C96.1953 40.5597 96.0118 40.7573 95.8926 40.9929L95.4202 40.5583C95.5959 40.2418 95.8581 39.9811 96.1766 39.8064C96.4952 39.6316 96.8569 39.5498 97.2202 39.5705C98.4385 39.5705 99.1644 40.2027 99.1644 41.2695V44.0402H99.7462V44.7218L99.3037 44.7021ZM98.3788 43.2204V42.4104H97.3395C96.4445 42.4104 96.0417 42.682 96.0417 43.171V43.3784C96.0417 43.8723 96.4346 44.1588 97.0362 44.1588C97.8169 44.1588 98.3788 43.7587 98.3788 43.2401V43.2204Z" fill="#999999"/>
<path d="M100.855 44.7021V39.6693H101.641V40.4991H101.68C101.786 40.2096 101.983 39.9619 102.242 39.7928C102.501 39.6237 102.808 39.5422 103.117 39.5607C104.157 39.5607 104.818 40.262 104.818 41.4819V44.7119H104.027V41.6103C104.027 40.7114 103.635 40.2521 102.879 40.2521C102.252 40.2521 101.641 40.5633 101.641 41.2103V44.7021H100.855Z" fill="#999999"/>
<path d="M109.472 39.6692H110.248L107.98 45.8725C107.752 46.4799 107.543 46.6577 106.797 46.6577H106.394V45.9712H107.19L107.573 44.8995L105.678 39.6692H106.459L107.677 43.0918L107.916 43.9117H107.951L108.229 43.0918L109.472 39.6692Z" fill="#999999"/>
<path d="M70.5532 17.2862L71.5477 16.2984C71.7654 16.5531 72.0368 16.7573 72.3427 16.8964C72.6486 17.0355 72.9815 17.1062 73.3179 17.1034C74.0638 17.1034 74.4317 16.7676 74.4317 16.2589C74.4317 15.8736 74.2676 15.5971 73.6113 15.5032L72.9102 15.4143C71.4184 15.2217 70.7471 14.5006 70.7471 13.3252C70.7471 12.0707 71.7416 11.1965 73.3975 11.1965C73.853 11.1746 74.3079 11.2517 74.7304 11.4223C75.1529 11.5929 75.5329 11.8529 75.8439 12.1843L74.8245 13.2066C74.6435 12.9902 74.4149 12.818 74.1562 12.7033C73.8976 12.5885 73.6159 12.5343 73.3328 12.5448C72.6416 12.5448 72.3085 12.8066 72.3085 13.2313C72.3085 13.6561 72.5621 13.8931 73.1488 13.982L73.845 14.0907C75.292 14.3228 75.9881 14.9649 75.9881 16.17C75.9881 17.5183 74.9936 18.4517 73.2433 18.4517C72.736 18.4672 72.2316 18.3706 71.7665 18.1691C71.3013 17.9675 70.8869 17.666 70.5532 17.2862Z" fill="#4D4D4D"/>
<path d="M79.9757 12.6338V18.2741H78.4392V12.6338H76.5298V11.2756H81.8901V12.6338H79.9757Z" fill="#4D4D4D"/>
<path d="M83.6108 18.2741V17.0739V12.4906V11.2756H85.1473V12.4906V17.0739V18.2741H83.6108Z" fill="#4D4D4D"/>
<path d="M92.0391 13.6858L91.5419 14.7131L90.1645 17.1826L88.817 14.7131L88.2849 13.6068H88.2551V18.2741H86.8081V11.2756H88.4341L90.1645 14.56L91.875 11.2756H93.511V18.2741H92.0391V13.6858Z" fill="#4D4D4D"/>
<path d="M96.5142 11.2756V15.5774C96.5142 16.5652 96.8772 17.0591 97.7871 17.0591C98.6971 17.0591 99.0601 16.5652 99.0601 15.5774V11.2756H100.552V15.4144C100.552 17.4838 99.801 18.4074 97.7822 18.4074C95.7634 18.4074 95.0225 17.4838 95.0225 15.4144V11.2756H96.5142Z" fill="#4D4D4D"/>
<path d="M102.104 18.2741V11.2756H103.64V16.9307H106.33V18.2741H102.104Z" fill="#4D4D4D"/>
</svg>
